HIERARCHY
ROOT root
{
	OFFSET 0.000000 0.000000 0.000000
	CHANNELS 6 Xposition Yposition Zposition Zrotation Yrotation Xrotation
	JOINT lhip
	{
		OFFSET 0.058581 -0.082280 -0.017664
		CHANNELS 3 Zrotation Yrotation Xrotation
		JOINT lknee
		{
			OFFSET 0.043451 -0.386469 0.008037
			CHANNELS 3 Zrotation Yrotation Xrotation
			JOINT lankle
			{
				OFFSET -0.014790 -0.426874 -0.037428
				CHANNELS 3 Zrotation Yrotation Xrotation
				JOINT ltoe
				{
					OFFSET 0.041054 -0.060286 0.122042
					CHANNELS 3 Zrotation Yrotation Xrotation
					End Site
					{
						OFFSET 0.000000 0.000000 0.000000
					}
				}
			}
		}
	}
	JOINT rhip
	{
		OFFSET -0.060310 -0.090513 -0.013543
		CHANNELS 3 Zrotation Yrotation Xrotation
		JOINT rknee
		{
			OFFSET -0.043257 -0.383688 -0.004843
			CHANNELS 3 Zrotation Yrotation Xrotation
			JOINT rankle
			{
				OFFSET 0.019056 -0.420046 -0.034562
				CHANNELS 3 Zrotation Yrotation Xrotation
				JOINT rtoe
				{
					OFFSET -0.034840 -0.062106 0.130323
					CHANNELS 3 Zrotation Yrotation Xrotation
					End Site
					{
						OFFSET 0.000000 0.000000 0.000000
					}
				}
			}
		}
	}
	JOINT lowerback
	{
		OFFSET 0.004439 0.124404 -0.038385
		CHANNELS 3 Zrotation Yrotation Xrotation
		JOINT upperback
		{
			OFFSET 0.004488 0.137956 0.026820
			CHANNELS 3 Zrotation Yrotation Xrotation
			JOINT chest
			{
				OFFSET -0.002265 0.056032 0.002855
				CHANNELS 3 Zrotation Yrotation Xrotation
				JOINT lowerneck
				{
					OFFSET -0.013390 0.211636 -0.033468
					CHANNELS 3 Zrotation Yrotation Xrotation
					JOINT upperneck
					{
						OFFSET 0.010113 0.088937 0.050410
						CHANNELS 3 Zrotation Yrotation Xrotation
						End Site
						{
							OFFSET 0.000000 0.000000 0.000000
						}
					}
				}
				JOINT lclavicle
				{
					OFFSET 0.071702 0.114000 -0.018898
					CHANNELS 3 Zrotation Yrotation Xrotation
					JOINT lshoulder
					{
						OFFSET 0.122921 0.045205 -0.019046
						CHANNELS 3 Zrotation Yrotation Xrotation
						JOINT lelbow
						{
							OFFSET 0.255332 -0.015649 -0.022946
							CHANNELS 3 Zrotation Yrotation Xrotation
							JOINT lwrist
							{
								OFFSET 0.265709 0.012698 -0.007375
								CHANNELS 3 Zrotation Yrotation Xrotation
								End Site
								{
									OFFSET 0.000000 0.000000 0.000000
								}
							}
						}
					}
				}
				JOINT rclavicle
				{
					OFFSET -0.082954 0.112472 -0.023707
					CHANNELS 3 Zrotation Yrotation Xrotation
					JOINT rshoulder
					{
						OFFSET -0.113228 0.046853 -0.008472
						CHANNELS 3 Zrotation Yrotation Xrotation
						JOINT relbow
						{
							OFFSET -0.260127 -0.014369 -0.031269
							CHANNELS 3 Zrotation Yrotation Xrotation
							JOINT rwrist
							{
								OFFSET -0.269108 0.006794 -0.006027
								CHANNELS 3 Zrotation Yrotation Xrotation
								End Site
								{
									OFFSET 0.000000 0.000000 0.000000
								}
							}
						}
					}
				}
			}
		}
	}
}
MOTION
Frames: 7
Frame Time: 0.033333
1.278533 0.704879 0.991916 -86.895130 -1.282696 86.055948 -1.230735 -1.966255 -2.891692 -2.643692 -5.772485 12.344871 2.900062 11.159881 -11.037078 0.000000 -0.000000 0.000000 1.582420 -2.480855 -2.584524 -2.604879 -2.203444 12.718645 -0.142812 -12.195070 -11.046091 0.000000 -0.000000 0.000000 -1.438735 3.351175 7.080032 0.342566 -2.071969 4.149273 -1.539441 0.644715 -2.686796 1.622000 -4.452123 -7.834872 4.077741 -8.034653 2.836042 -29.269706 -6.540000 0.657871 -51.246484 -6.572512 15.858724 2.034595 -18.760898 5.597780 -4.940416 -7.135487 6.830901 29.463364 10.860965 3.091337 54.137992 3.025483 17.142418 -6.429267 25.812422 4.881449 0.243831 6.820821 6.455457 
1.277752 0.705037 0.992056 -87.303620 -1.332591 86.134013 -1.268326 -1.847846 -2.758719 -2.625002 -5.697015 12.115427 2.881771 11.364915 -11.031498 0.000000 -0.000000 0.000000 1.541360 -2.325536 -2.648007 -2.566136 -2.014221 12.737201 -0.022849 -12.254746 -11.077183 0.000000 -0.000000 0.000000 -1.583075 3.212467 6.948389 0.355228 -2.177800 4.115778 -1.494205 0.511877 -2.751306 1.501094 -4.690385 -7.772377 4.044888 -7.971063 3.308092 -29.337994 -6.771853 0.810441 -51.144853 -6.915115 15.895240 2.074488 -18.768457 5.340082 -5.033372 -7.100331 6.749545 29.410070 11.198957 3.167131 53.920838 2.871857 17.615548 -6.072569 25.579668 5.435337 0.949831 6.719605 6.399360 
1.277063 0.705720 0.992073 -87.848208 -1.372057 86.231920 -1.220252 -1.687763 -2.671073 -2.662784 -5.492766 11.942406 2.923526 11.553176 -10.966925 0.000000 -0.000000 0.000000 1.561998 -2.165897 -2.797942 -2.561056 -1.801257 12.817365 0.054198 -12.128072 -11.084259 0.000000 -0.000000 0.000000 -1.711163 3.067806 6.887861 0.335610 -2.167478 3.917875 -1.506463 0.501794 -2.855367 1.506889 -4.744646 -7.808596 3.836160 -7.874432 4.252025 -29.270758 -6.860658 0.863645 -51.175874 -7.178477 16.015668 2.138613 -18.941789 5.340317 -4.781486 -7.179176 6.507010 29.408026 11.219623 3.416878 53.923914 2.857789 17.919020 -5.968600 25.518280 5.646038 1.073630 6.497540 6.020141 
1.275446 0.706458 0.992614 -88.608090 -1.351065 86.218213 -1.139859 -1.368296 -2.327322 -2.599453 -5.282515 11.759091 2.999214 11.784632 -11.061364 0.000000 -0.000000 0.000000 1.625358 -2.189227 -2.719701 -2.493042 -1.428842 12.873287 0.145748 -11.726624 -11.106709 0.000000 -0.000000 0.000000 -1.732229 3.092876 6.572481 0.333437 -2.070855 4.123267 -1.601045 0.557184 -2.995479 1.290566 -4.760307 -7.553909 3.610153 -7.636251 4.400690 -29.247998 -6.826207 0.493727 -51.452687 -7.594498 15.959045 2.538794 -18.852781 4.737953 -5.253170 -6.607814 6.700498 29.349144 11.005376 3.452660 54.076939 2.817858 17.906699 -5.919751 25.215953 5.644880 1.290034 6.466831 6.627046 
1.277056 0.707214 0.991702 -87.876755 -1.066153 86.134776 -0.854987 -2.017742 -2.886319 -2.592022 -5.236933 12.537235 2.967197 11.769666 -11.144151 0.000000 -0.000000 0.000000 2.036762 -1.963778 -2.696966 -2.573330 -1.818193 12.815990 -0.125427 -12.349052 -10.979347 0.000000 -0.000000 0.000000 -1.404137 2.719542 7.366556 0.248279 -2.585565 3.091872 -1.513409 0.341363 -2.468089 1.227124 -4.447903 -7.700641 3.569432 -7.555985 4.450275 -29.206224 -7.074843 0.517429 -51.654769 -8.156030 15.695520 2.918731 -18.861032 4.622397 -5.955008 -6.504597 5.666634 28.969476 11.093935 3.149885 54.537209 2.653529 17.994723 -6.428725 25.357198 5.861020 1.981293 6.253171 5.620807 
1.276310 0.708266 0.991495 -88.577319 -1.209279 86.094460 -0.982201 -1.730955 -2.411372 -2.525650 -5.075998 12.020904 3.056726 12.026664 -10.988287 0.000000 -0.000000 0.000000 2.054304 -1.586736 -2.653938 -2.706169 -1.663563 12.872525 -0.100694 -12.284311 -11.061145 0.000000 -0.000000 0.000000 -1.562819 2.591122 7.453910 0.132240 -2.270708 2.951796 -1.536902 0.461702 -2.527033 1.026028 -4.279760 -7.317075 3.731462 -7.168919 3.795352 -29.176891 -7.111500 0.310898 -51.904288 -8.408377 15.484276 3.257283 -19.105819 3.784670 -7.879230 -5.735598 5.341219 28.853351 11.030954 3.084819 54.940142 2.403478 18.014727 -6.995817 25.630868 5.422346 3.070195 5.853522 5.440534 
1.274726 0.708437 0.991743 -88.459538 -1.187666 86.183014 -1.020826 -1.702432 -2.312925 -2.390429 -5.166086 11.921659 3.103347 11.934421 -11.071488 0.000000 -0.000000 0.000000 2.082826 -1.808135 -2.440347 -2.667173 -1.562215 12.529067 -0.021666 -12.355753 -11.159710 0.000000 -0.000000 0.000000 -1.649058 2.617254 7.149798 0.235420 -2.608513 2.938395 -1.519657 0.396652 -2.488267 0.858151 -4.076159 -7.290195 3.666670 -6.871793 3.176559 -29.105083 -6.958138 0.120921 -52.022373 -8.507028 15.330537 3.147011 -19.795884 3.613323 -9.144308 -4.826611 5.149325 28.847970 10.661347 2.927006 54.998836 2.120404 17.918836 -7.440214 26.003982 5.189004 3.845211 5.372603 5.653318 
